<svg width="738" height="738" viewBox="0 0 738 738" fill="none" xmlns="http://www.w3.org/2000/svg">
<rect width="738" height="738" rx="100" fill="#E8AA42"/>
<path d="M287.583 142.626L459.235 142.626C473.593 142.626 483.219 158.843 476.783 172.186L281.309 577.416C278.19 583.881 271.913 587.909 264.957 587.909L71.2798 587.909C56.5579 587.909 46.9521 570.943 54.1165 557.595L271.616 152.364C274.858 146.324 280.921 142.626 287.583 142.626Z" fill="#025464" stroke="black"/>
<path d="M437.833 252.959L280.879 577.436C277.757 583.89 271.485 587.909 264.537 587.909L71.2786 587.909C56.5567 587.909 46.9509 570.943 54.1152 557.595L215.878 256.204C224.289 240.533 247.361 250.83 243.287 268.437C239.08 286.616 262.349 297.892 271.985 282.345L310.176 220.723C316.16 211.067 330.648 216.825 329.606 228.445C328.489 240.904 343.831 247.323 350.597 237.227L357.293 227.237C362.144 219.998 372.161 219.385 378.181 225.957L382.015 230.143C389.497 238.311 401.698 238.54 408.97 230.648C423.056 215.363 447.048 233.908 437.833 252.959Z" fill="#046679" stroke="black"/>
<path d="M405.673 352.824L474.936 212.756C482.233 197.998 503.239 197.885 510.695 212.564L685.24 556.19C691.999 569.496 682.332 585.248 667.409 585.248H326.129C311.41 585.248 301.733 569.886 308.09 556.61L405.673 352.824Z" fill="#E57C23"/>
<path d="M432.223 382.597L432.234 382.574L477.308 290.36C483.848 276.979 502.883 276.878 509.566 290.188L626.712 523.5C632.723 535.47 624.02 549.577 610.626 549.577H381.62C368.408 549.577 359.698 535.818 365.35 523.876L432.223 382.597Z" fill="#E8AA42" stroke="black" stroke-width="4"/>
<path d="M349.525 190.081C349.525 196.813 344.46 202.207 338.287 202.207C332.114 202.207 327.049 196.813 327.049 190.081C327.049 183.348 332.114 177.954 338.287 177.954C344.46 177.954 349.525 183.348 349.525 190.081Z" fill="#046679" stroke="black"/>
<path d="M442.562 177.922C442.562 184.654 437.497 190.048 431.324 190.048C425.151 190.048 420.085 184.654 420.085 177.922C420.085 171.189 425.151 165.795 431.324 165.795C437.497 165.795 442.562 171.189 442.562 177.922Z" fill="#046679" stroke="black"/>
<path d="M285.182 225.622C285.182 232.355 280.117 237.749 273.944 237.749C267.771 237.749 262.706 232.355 262.706 225.622C262.706 218.89 267.771 213.496 273.944 213.496C280.117 213.496 285.182 218.89 285.182 225.622Z" fill="#046679" stroke="black"/>
<path d="M391.262 169.504C391.262 176.236 386.196 181.63 380.023 181.63C373.85 181.63 368.785 176.236 368.785 169.504C368.785 162.771 373.85 157.377 380.023 157.377C386.196 157.377 391.262 162.771 391.262 169.504Z" fill="#046679" stroke="black"/>
</svg>
