<svg width="1093" height="1093" viewBox="0 0 1093 1093" fill="none" xmlns="http://www.w3.org/2000/svg">
<path d="M341.562 1093V729.918C300.575 709.366 273.25 661.412 273.25 613.457V339.433C273.25 291.479 300.575 250.375 341.562 222.973V202.421C341.562 127.064 280.081 65.4085 204.938 65.4085C129.794 65.4085 68.3125 127.064 68.3125 202.421C68.3125 277.777 129.794 339.433 204.938 339.433H68.3125C34.1562 339.433 0 373.686 0 407.939V681.963C0 716.216 34.1562 750.47 68.3125 750.47V1093H341.562ZM1024.69 339.433H888.062C963.206 339.433 1024.69 277.777 1024.69 202.421C1024.69 127.064 963.206 65.4085 888.062 65.4085C812.919 65.4085 751.438 127.064 751.438 202.421V222.973C792.425 250.375 819.75 291.479 819.75 339.433V613.457C819.75 661.412 792.425 709.366 751.438 729.918V1093H1024.69V750.47C1058.84 750.47 1093 716.216 1093 681.963V407.939C1093 373.686 1058.84 339.433 1024.69 339.433ZM683.125 133.915C683.536 152.16 680.309 170.305 673.632 187.283C666.954 204.26 656.962 219.729 644.241 232.781C631.521 245.832 616.328 256.204 599.555 263.287C582.783 270.369 564.768 274.02 546.569 274.024C528.37 274.029 510.354 270.387 493.578 263.313C476.801 256.239 461.604 245.875 448.876 232.83C436.149 219.784 426.149 204.321 419.463 187.346C412.778 170.372 409.541 152.229 409.943 133.983C410.733 98.1845 425.466 64.1182 450.988 39.0768C476.511 14.0354 510.795 0.00895838 546.501 4.28963e-06C582.207 -0.0089498 616.498 14.0003 642.033 39.0289C667.568 64.0575 682.318 98.1164 683.125 133.915Z" fill="#F8F1F1"/>
<path d="M683.125 270.927H409.875C375.719 270.927 341.562 305.18 341.562 339.433V613.457C341.562 647.71 375.719 681.963 409.875 681.963V1093H683.125V681.963C717.281 681.963 751.438 647.71 751.438 613.457V339.433C751.438 305.18 717.281 270.927 683.125 270.927Z" fill="#F8F1F1"/>
</svg>
