<svg width="240" height="240" viewBox="0 0 240 240" fill="none" xmlns="http://www.w3.org/2000/svg">
<path d="M73.3333 160H93.3333V80H53.3333V100H73.3333V160ZM126.667 160H160C163.778 160 166.947 158.72 169.507 156.16C172.067 153.6 173.342 150.436 173.333 146.667V93.3333C173.333 89.5556 172.053 86.3867 169.493 83.8267C166.933 81.2667 163.769 79.9911 160 80H126.667C122.889 80 119.72 81.28 117.16 83.84C114.6 86.4 113.324 89.5644 113.333 93.3333V146.667C113.333 150.444 114.613 153.613 117.173 156.173C119.733 158.733 122.898 160.009 126.667 160ZM133.333 146.667V126.667H153.333V146.667H133.333ZM133.333 113.333V93.3333H153.333V113.333H133.333ZM26.6667 240C19.3334 240 13.0534 237.387 7.82669 232.16C2.60002 226.933 -0.00886625 220.658 2.26373e-05 213.333V26.6667C2.26373e-05 19.3334 2.61336 13.0534 7.84002 7.82669C13.0667 2.60002 19.3422 -0.00886625 26.6667 2.26373e-05H213.333C220.667 2.26373e-05 226.947 2.61336 232.173 7.84002C237.4 13.0667 240.009 19.3422 240 26.6667V213.333C240 220.667 237.387 226.947 232.16 232.173C226.933 237.4 220.658 240.009 213.333 240H26.6667Z" fill="#D9D9D9"/>
</svg>
