<svg width="18" height="18" viewBox="0 0 18 18" fill="none" xmlns="http://www.w3.org/2000/svg">
<path d="M2 0C1.46957 0 0.960859 0.210714 0.585786 0.585786C0.210714 0.960859 0 1.46957 0 2V16C0 16.5304 0.210714 17.0391 0.585786 17.4142C0.960859 17.7893 1.46957 18 2 18H16C16.5304 18 17.0391 17.7893 17.4142 17.4142C17.7893 17.0391 18 16.5304 18 16V2C18 1.46957 17.7893 0.960859 17.4142 0.585786C17.0391 0.210714 16.5304 0 16 0H2ZM3 6H4.5L5.5 9.43L6.5 6H8L6.25 12H4.75L3 6ZM10 6H13.5C14.35 6 15 6.65 15 7.5V8.5C15 9.1 14.6 9.65 14.1 9.9L15 12H13.5L12.65 10H11.5V12H10V6ZM11.5 7.5V8.5H13.5V7.5H11.5Z" fill="#D9D9D9"/>
</svg>
