<svg width="33" height="33" viewBox="0 0 33 33" fill="none" xmlns="http://www.w3.org/2000/svg">
<path d="M3.66667 0C2.69421 0 1.76158 0.386308 1.07394 1.07394C0.386308 1.76158 0 2.69421 0 3.66667V29.3333C0 30.3058 0.386308 31.2384 1.07394 31.9261C1.76158 32.6137 2.69421 33 3.66667 33H29.3333C30.3058 33 31.2384 32.6137 31.9261 31.9261C32.6137 31.2384 33 30.3058 33 29.3333V3.66667C33 2.69421 32.6137 1.76158 31.9261 1.07394C31.2384 0.386308 30.3058 0 29.3333 0H3.66667ZM5.5 11H8.25L10.0833 17.2883L11.9167 11H14.6667L11.4583 22H8.70833L5.5 11ZM18.3333 11H24.75C26.3083 11 27.5 12.1917 27.5 13.75V15.5833C27.5 16.6833 26.7667 17.6917 25.85 18.15L27.5 22H24.75L23.1917 18.3333H21.0833V22H18.3333V11ZM21.0833 13.75V15.5833H24.75V13.75H21.0833Z" fill="#F24E1E"/>
</svg>
