<svg width="204" height="156" viewBox="0 0 204 156" fill="none" xmlns="http://www.w3.org/2000/svg">
<path d="M44.0258 2.77208C43.1746 1.90522 42.1606 1.21426 41.0417 0.738691C39.9229 0.26312 38.7211 0.0122562 37.5051 0.000437987C36.2891 -0.0113802 35.0826 0.216076 33.9547 0.669811C32.8268 1.12355 31.7995 1.79467 30.9316 2.64482C21.1134 12.3875 13.3253 23.9742 8.01639 36.7364C2.70751 49.4987 -0.0169826 63.1838 7.96455e-05 77.0024C-0.0158445 91.3511 2.92307 105.55 8.63441 118.718C14.3457 131.886 22.7076 143.741 33.2011 153.549C34.9672 155.178 37.3001 156.057 39.7045 155.997C42.1088 155.938 44.3954 154.945 46.0785 153.231C50.1075 149.209 49.6103 142.808 45.7343 139.105C37.3129 131.094 30.6114 121.458 26.0371 110.782C21.4627 100.106 19.1111 88.6136 19.1251 77.0024C19.1251 53.5103 28.5728 32.2071 43.8983 16.707C47.5958 12.9528 47.9783 6.71712 44.0258 2.77208ZM66.4785 25.2079C64.7994 23.4833 62.5037 22.4936 60.0947 22.4554C57.6857 22.4172 55.3597 23.3338 53.6265 25.0043C46.7281 31.7993 41.2525 39.8959 37.5183 48.8227C33.7841 57.7496 31.8658 67.3286 31.8751 77.0024C31.8601 87.2309 34.0012 97.3481 38.1594 106.697C42.3176 116.045 48.3998 124.416 56.0108 131.266C57.7607 132.809 60.0384 133.621 62.3718 133.533C64.7052 133.445 66.9153 132.465 68.544 130.795C72.726 126.621 71.9483 120.054 68.0213 116.364C62.6383 111.313 58.3505 105.214 55.4228 98.4441C52.4951 91.6739 50.9899 84.3763 51 77.0024C51 62.3676 56.8268 49.0817 66.3 39.3336C69.9465 35.5922 70.5458 29.2547 66.4785 25.2079ZM137.521 25.2079C139.201 23.4833 141.496 22.4936 143.905 22.4554C146.314 22.4172 148.64 23.3338 150.373 25.0043C157.272 31.7993 162.747 39.8959 166.482 48.8227C170.216 57.7496 172.134 67.3286 172.125 77.0024C172.14 87.2309 169.999 97.3481 165.841 106.697C161.682 116.045 155.6 124.416 147.989 131.266C146.239 132.809 143.962 133.621 141.628 133.533C139.295 133.445 137.085 132.465 135.456 130.795C131.274 126.621 132.052 120.054 135.979 116.364C141.362 111.313 145.65 105.214 148.577 98.4441C151.505 91.6739 153.01 84.3763 153 77.0024C153 62.3676 147.173 49.0817 137.7 39.3336C134.053 35.5922 133.454 29.2547 137.521 25.2079ZM159.974 2.78481C160.825 1.91795 161.839 1.22699 162.958 0.751416C164.077 0.275845 165.279 0.0249842 166.495 0.013166C167.711 0.00134784 168.917 0.228801 170.045 0.682536C171.173 1.13627 172.201 1.80739 173.068 2.65755C182.885 12.3987 190.672 23.9834 195.981 36.7433C201.29 49.5032 204.015 63.186 204 77.0024C204.016 91.3511 201.077 105.55 195.366 118.718C189.654 131.886 181.292 143.741 170.799 153.549C169.033 155.178 166.7 156.057 164.296 155.997C161.891 155.938 159.605 154.945 157.921 153.231C153.892 149.209 154.39 142.808 158.278 139.105C166.698 131.093 173.397 121.457 177.969 110.781C182.541 100.105 184.891 88.6127 184.875 77.0024C184.875 53.5103 175.427 32.2071 160.102 16.707C156.404 12.9528 156.022 6.71712 159.974 2.77208V2.78481ZM102 57.9135C96.9277 57.9135 92.0632 59.9246 88.4766 63.5045C84.89 67.0843 82.875 71.9397 82.875 77.0024C82.875 82.065 84.89 86.9204 88.4766 90.5002C92.0632 94.0801 96.9277 96.0912 102 96.0912C107.072 96.0912 111.937 94.0801 115.523 90.5002C119.11 86.9204 121.125 82.065 121.125 77.0024C121.125 71.9397 119.11 67.0843 115.523 63.5045C111.937 59.9246 107.072 57.9135 102 57.9135Z" fill="#F24E1E"/>
</svg>
