<svg width="29" height="24" viewBox="0 0 29 24" fill="none" xmlns="http://www.w3.org/2000/svg">
<path d="M24.0723 9C25.1327 8.99868 26.1494 8.57682 26.8992 7.82697C27.6491 7.07711 28.0709 6.06046 28.0723 5V2H25.0723C24.0484 2.00151 23.0645 2.39764 22.3253 3.106C21.8072 2.16602 21.0467 1.3821 20.1228 0.835837C19.1989 0.289574 18.1455 0.000945844 17.0723 0H14.0723V3C14.0741 4.59073 14.7069 6.11578 15.8317 7.24059C16.9565 8.36541 18.4815 8.99815 20.0723 9H21.0723V22H9.07227V17H10.0723C11.1327 16.9987 12.1494 16.5768 12.8992 15.827C13.6491 15.0771 14.0709 14.0605 14.0723 13V10H11.0723C10.0484 10.0015 9.06453 10.3976 8.32527 11.106C7.80722 10.166 7.04667 9.3821 6.12281 8.83584C5.19895 8.28957 4.14554 8.00095 3.07227 8H0.0722656V11C0.0741182 12.5907 0.706854 14.1158 1.83167 15.2406C2.95649 16.3654 4.48154 16.9981 6.07227 17H7.07227V22H0.0722656V24H28.0723V22H23.0723V9H24.0723ZM23.0723 6C23.0728 5.46973 23.2837 4.96133 23.6586 4.58637C24.0336 4.21141 24.542 4.00053 25.0723 4H26.0723V5C26.0717 5.53027 25.8609 6.03867 25.4859 6.41363C25.1109 6.78859 24.6025 6.99947 24.0723 7H23.0723V6ZM9.07227 14C9.0728 13.4697 9.28368 12.9613 9.65864 12.5864C10.0336 12.2114 10.542 12.0005 11.0723 12H12.0723V13C12.0717 13.5303 11.8609 14.0387 11.4859 14.4136C11.1109 14.7886 10.6025 14.9995 10.0723 15H9.07227V14ZM7.07227 15H6.07227C5.01181 14.9987 3.99516 14.5768 3.2453 13.827C2.49544 13.0771 2.07359 12.0605 2.07227 11V10H3.07227C4.13273 10.0013 5.14937 10.4232 5.89923 11.173C6.64909 11.9229 7.07094 12.9395 7.07227 14V15ZM21.0723 7H20.0723C19.0118 6.99868 17.9952 6.57682 17.2453 5.82697C16.4954 5.07711 16.0736 4.06046 16.0723 3V2H17.0723C18.1327 2.00132 19.1494 2.42318 19.8992 3.17303C20.6491 3.92289 21.0709 4.93954 21.0723 6V7Z" fill="#D9D9D9"/>
</svg>
