<svg width="2049" height="1920" viewBox="0 0 2049 1920" fill="none" xmlns="http://www.w3.org/2000/svg">
<path d="M1792.1 1132C1792.1 1143.05 1801.05 1152 1812.1 1152H2028.1C2039.15 1152 2048.1 1160.95 2048.1 1172V1900C2048.1 1911.05 2039.15 1920 2028.1 1920H1044.1C1033.05 1920 1024.1 1911.05 1024.1 1900V1172C1024.1 1160.95 1033.05 1152 1044.1 1152H1260.1C1271.15 1152 1280.1 1143.05 1280.1 1132V916C1280.1 904.954 1289.05 896 1300.1 896H1772.1C1783.15 896 1792.1 904.954 1792.1 916V1132ZM1408.1 1132C1408.1 1143.05 1417.05 1152 1428.1 1152H1644.1C1655.15 1152 1664.1 1143.05 1664.1 1132V1044C1664.1 1032.95 1655.15 1024 1644.1 1024H1428.1C1417.05 1024 1408.1 1032.95 1408.1 1044V1132ZM1920.1 1556C1920.1 1544.95 1911.15 1536 1900.1 1536H1812.1C1801.05 1536 1792.1 1544.95 1792.1 1556V1644C1792.1 1655.05 1783.15 1664 1772.1 1664H1684.1C1673.05 1664 1664.1 1655.05 1664.1 1644V1556C1664.1 1544.95 1655.15 1536 1644.1 1536H1428.1C1417.05 1536 1408.1 1544.95 1408.1 1556V1644C1408.1 1655.05 1399.15 1664 1388.1 1664H1300.1C1289.05 1664 1280.1 1655.05 1280.1 1644V1556C1280.1 1544.95 1271.15 1536 1260.1 1536H1172.1C1161.05 1536 1152.1 1544.95 1152.1 1556V1772C1152.1 1783.05 1161.05 1792 1172.1 1792H1900.1C1911.15 1792 1920.1 1783.05 1920.1 1772V1556ZM1172.1 1280C1161.05 1280 1152.1 1288.95 1152.1 1300V1388C1152.1 1399.05 1161.05 1408 1172.1 1408H1900.1C1911.15 1408 1920.1 1399.05 1920.1 1388V1300C1920.1 1288.95 1911.15 1280 1900.1 1280H1172.1ZM896.101 768C896.101 830 882.434 888 855.101 942C832.58 986.493 802.139 1025.1 763.777 1057.83C752.412 1067.52 753.851 1086.13 766.76 1093.65C786.301 1105.04 805.081 1117.49 823.101 1131C847.716 1149.46 870.344 1169.91 890.983 1192.35C894.307 1195.96 896.101 1200.71 896.101 1205.62V1536C896.101 1483.33 886.101 1433.67 866.101 1387C846.101 1340.33 818.767 1299.67 784.101 1265C749.434 1230.33 708.434 1202.67 661.101 1182C613.767 1161.33 564.101 1151.33 512.101 1152C458.767 1152 409.101 1162 363.101 1182C317.101 1202 276.434 1229.33 241.101 1264C205.767 1298.67 178.101 1339.67 158.101 1387C140.679 1428.23 130.845 1471.23 128.599 1516.01C128.046 1527.04 119.146 1536 108.101 1536H20.1006C9.05489 1536 0.0592182 1527.04 0.479312 1516C2.06162 1474.43 8.60204 1434.1 20.1006 1395C33.4339 1349.67 52.4339 1306.67 77.1006 1266C101.767 1225.33 132.101 1189.33 168.101 1158C196.079 1133.65 226.071 1111.91 258.076 1092.8C270.801 1085.2 272.06 1066.78 260.772 1057.17C222.851 1024.89 192.627 986.503 170.101 942C142.767 888 128.767 830 128.101 768C128.101 715.333 138.101 665.667 158.101 619C178.101 572.333 205.434 531.667 240.101 497C274.767 462.333 315.434 434.667 362.101 414C408.767 393.333 458.767 383.333 512.101 384C560.101 384 605.767 392.333 649.101 409C687.009 423.58 722.112 444.283 754.409 471.108C762.325 477.683 773.879 477.685 781.826 471.148C792.944 462.001 804.642 453.434 816.918 445.447C827.91 438.295 830.126 422.794 822.041 412.47C807.535 393.946 795.888 373.456 787.101 351C775.101 320.333 768.767 288.667 768.101 256C768.101 220.667 774.767 187.667 788.101 157C801.434 126.333 819.767 99 843.101 75C866.434 51 893.434 32.6667 924.101 20C954.767 7.33333 988.101 0.666667 1024.1 0C1059.43 0 1092.43 6.66667 1123.1 20C1153.77 33.3333 1181.1 51.6667 1205.1 75C1229.1 98.3333 1247.43 125.333 1260.1 156C1272.77 186.667 1279.43 220 1280.1 256C1280.1 288.667 1274.1 320.333 1262.1 351C1253.35 373.364 1241.58 393.778 1226.81 412.242C1218.5 422.623 1220.7 438.42 1231.89 445.607C1268.47 469.106 1300.02 497.8 1326.53 531.689C1335.33 542.929 1352.87 542.929 1361.67 531.689C1388.26 497.697 1419.92 468.932 1456.65 445.393C1467.74 438.282 1470.03 422.69 1461.92 412.31C1447.47 393.828 1435.86 373.391 1427.1 351C1415.1 320.333 1408.77 288.667 1408.1 256C1408.1 220.667 1414.77 187.667 1428.1 157C1441.43 126.333 1459.77 99 1483.1 75C1506.43 51 1533.43 32.6667 1564.1 20C1594.77 7.33333 1628.1 0.666667 1664.1 0C1699.43 0 1732.43 6.66667 1763.1 20C1793.77 33.3333 1821.1 51.6667 1845.1 75C1869.1 98.3333 1887.43 125.333 1900.1 156C1912.77 186.667 1919.43 220 1920.1 256C1920.1 288.667 1914.1 320.333 1902.1 351C1893.38 373.292 1881.66 393.646 1866.95 412.063C1858.61 422.506 1860.89 438.405 1872.16 445.585C1893.8 459.367 1913.78 475.172 1932.1 493C1956.77 517 1977.43 543.333 1994.1 572C2010.77 600.667 2024.1 632 2034.1 666C2042.18 693.464 2046.78 720.928 2047.89 748.392C2048.34 759.276 2039.38 768 2028.49 768H1940.1C1929.05 768 1920.19 759.033 1919.37 748.017C1917.31 720.151 1910.89 693.812 1900.1 669C1886.77 638.333 1868.43 611 1845.1 587C1821.77 563 1794.77 544.667 1764.1 532C1733.43 519.333 1700.1 512.667 1664.1 512C1628.77 512 1595.77 518.667 1565.1 532C1534.43 545.333 1507.1 563.667 1483.1 587C1459.1 610.333 1440.77 637.333 1428.1 668C1417.77 693.023 1411.42 719.821 1409.08 748.394C1408.19 759.259 1399.37 768 1388.47 768H1300.1C1289.05 768 1280.19 759.033 1279.37 748.017C1277.31 720.151 1270.89 693.812 1260.1 669C1246.77 638.333 1228.43 611 1205.1 587C1181.77 563 1154.77 544.667 1124.1 532C1093.43 519.333 1060.1 512.667 1024.1 512C991.434 512 959.767 518 929.101 530C903.195 540.137 879.905 554.318 859.233 572.543C852.467 578.507 851.258 588.406 855.397 596.42C867.799 620.432 877.367 645.626 884.101 672C892.101 703.333 896.101 735.333 896.101 768ZM1664.1 128C1646.1 128 1629.43 131.333 1614.1 138C1598.77 144.667 1585.43 153.667 1574.1 165C1562.77 176.333 1553.43 190 1546.1 206C1538.77 222 1535.43 238.667 1536.1 256C1536.1 274 1539.43 290.667 1546.1 306C1552.77 321.333 1561.77 334.667 1573.1 346C1584.43 357.333 1598.1 366.667 1614.1 374C1630.1 381.333 1646.77 384.667 1664.1 384C1682.1 384 1698.77 380.667 1714.1 374C1729.43 367.333 1742.77 358.333 1754.1 347C1765.43 335.667 1774.77 322 1782.1 306C1789.43 290 1792.77 273.333 1792.1 256C1792.1 238 1788.77 221.333 1782.1 206C1775.43 190.667 1766.43 177.333 1755.1 166C1743.77 154.667 1730.1 145.333 1714.1 138C1698.1 130.667 1681.43 127.333 1664.1 128ZM1024.1 128C1006.1 128 989.434 131.333 974.101 138C958.767 144.667 945.434 153.667 934.101 165C922.767 176.333 913.434 190 906.101 206C898.767 222 895.434 238.667 896.101 256C896.101 274 899.434 290.667 906.101 306C912.767 321.333 921.767 334.667 933.101 346C944.434 357.333 958.101 366.667 974.101 374C990.101 381.333 1006.77 384.667 1024.1 384C1042.1 384 1058.77 380.667 1074.1 374C1089.43 367.333 1102.77 358.333 1114.1 347C1125.43 335.667 1134.77 322 1142.1 306C1149.43 290 1152.77 273.333 1152.1 256C1152.1 238 1148.77 221.333 1142.1 206C1135.43 190.667 1126.43 177.333 1115.1 166C1103.77 154.667 1090.1 145.333 1074.1 138C1058.1 130.667 1041.43 127.333 1024.1 128ZM512.101 1024C547.434 1024 580.434 1017.33 611.101 1004C641.767 990.667 669.101 972.333 693.101 949C717.101 925.667 735.434 898.667 748.101 868C760.767 837.333 767.434 804 768.101 768C768.101 732.667 761.434 699.667 748.101 669C734.767 638.333 716.434 611 693.101 587C669.767 563 642.767 544.667 612.101 532C581.434 519.333 548.101 512.667 512.101 512C476.767 512 443.767 518.667 413.101 532C382.434 545.333 355.101 563.667 331.101 587C307.101 610.333 288.767 637.333 276.101 668C263.434 698.667 256.767 732 256.101 768C256.101 803.333 262.767 836.333 276.101 867C289.434 897.667 307.767 925 331.101 949C354.434 973 381.434 991.333 412.101 1004C442.767 1016.67 476.101 1023.33 512.101 1024Z" fill="#F8F1F1"/>
</svg>
