<svg width="887" height="896" viewBox="0 0 887 896" fill="none" xmlns="http://www.w3.org/2000/svg">
<path d="M566 544H502V352H566V544ZM566 704V864C566 872.487 562.629 880.626 556.628 886.627C550.626 892.629 542.487 896 534 896H342C333.513 896 325.374 892.629 319.373 886.627C313.372 880.626 310 872.487 310 864V704H374V832H502V704H566ZM310 544V352H374V544H310ZM566 192H502V64H374V192H310V32C310 23.5131 313.372 15.3737 319.373 9.37258C325.374 3.37142 333.513 0 342 0H534C542.487 0 550.626 3.37142 556.628 9.37258C562.629 15.3737 566 23.5131 566 32V192Z" fill="#D9D9D9"/>
<path d="M146.8 192L75.5682 272L146.736 352H694V192H146.8ZM132.4 128H726C734.487 128 742.626 131.371 748.628 137.373C754.629 143.374 758 151.513 758 160V384C758 392.487 754.629 400.626 748.628 406.627C742.626 412.629 734.487 416 726 416H132.4C127.877 416.001 123.405 415.044 119.279 413.19C115.154 411.337 111.467 408.63 108.464 405.248L8.88017 293.248C3.6798 287.392 0.807617 279.832 0.807617 272C0.807617 264.168 3.6798 256.608 8.88017 250.752L108.464 138.752C111.467 135.37 115.154 132.663 119.279 130.81C123.405 128.956 127.877 127.999 132.4 128ZM811.184 624L740.08 704H192.816V544H740.016L811.184 624ZM160.88 480C152.393 480 144.254 483.371 138.253 489.373C132.252 495.374 128.88 503.513 128.88 512V736C128.88 744.487 132.252 752.626 138.253 758.627C144.254 764.629 152.393 768 160.88 768H754.48C759.003 768.001 763.475 767.044 767.601 765.19C771.727 763.337 775.413 760.63 778.416 757.248L878 645.248C883.201 639.392 886.073 631.832 886.073 624C886.073 616.168 883.201 608.608 878 602.752L778.416 490.752C775.413 487.37 771.727 484.663 767.601 482.81C763.475 480.956 759.003 479.999 754.48 480H160.88Z" fill="#D9D9D9"/>
</svg>
