<svg width="1050" height="1104" viewBox="0 0 1050 1104" fill="none" xmlns="http://www.w3.org/2000/svg">
<path d="M472.5 210.283H315L525 0L735 210.283H577.5V443.172C538.125 467.355 502.95 497.32 472.5 532.017V210.283ZM1050 525.708L840 315.425V473.137C748.81 469.382 659.692 501.017 591.226 561.447C522.759 621.877 480.228 706.438 472.5 797.499C433.135 811.495 400.916 840.548 382.907 878.29C364.898 916.033 362.567 959.385 376.425 998.846C390.402 1038.26 419.415 1070.53 457.107 1088.56C494.799 1106.59 538.093 1108.93 577.5 1095.05C616.831 1081.01 649.013 1051.95 667.015 1014.22C685.017 976.495 687.376 933.167 673.575 893.704C657.825 848.493 622.125 813.271 577.5 797.499C602.175 587.216 812.175 576.702 837.375 576.702V734.414L1050 525.708ZM453.075 556.725C383.414 502.891 297.993 473.517 210 473.137V315.425L0 525.708L210 735.992V578.279C280.35 579.856 348.075 604.564 401.1 651.878C414.225 618.233 431.55 586.165 453.075 556.725Z" fill="#F8F1F1"/>
</svg>
