<svg width="36" height="36" viewBox="0 0 36 36" fill="none" xmlns="http://www.w3.org/2000/svg">
<path fill-rule="evenodd" clip-rule="evenodd" d="M3.263 0C2.885 0 2.548 0.262 2.418 0.656L0.11 7.667C0.0371257 7.88872 -5.32681e-06 8.12062 5.71163e-10 8.354V11.143C5.71163e-10 12.72 1.151 14 2.571 14C3.991 14 5.143 12.72 5.143 11.143C5.143 12.721 6.294 14 7.714 14C9.134 14 10.286 12.72 10.286 11.143C10.286 12.721 11.437 14 12.857 14C14.277 14 15.427 12.722 15.429 11.145C15.429 12.722 16.58 14 18 14C19.42 14 20.571 12.72 20.571 11.143C20.571 12.721 21.723 14 23.143 14C24.563 14 25.713 12.722 25.714 11.145C25.715 12.722 26.866 14 28.286 14C29.706 14 30.857 12.72 30.857 11.143C30.857 12.721 32.008 14 33.429 14C34.849 14 36 12.72 36 11.143V8.354C36 8.12062 35.9629 7.88872 35.89 7.667L33.582 0.657C33.452 0.262 33.115 0 32.737 0H3.263Z" fill="#D9D9D9"/>
<path fill-rule="evenodd" clip-rule="evenodd" d="M4 15.23V23H1.5C1.36739 23 1.24021 23.0527 1.14645 23.1464C1.05268 23.2402 1 23.3674 1 23.5V24.5C1 24.6326 1.05268 24.7598 1.14645 24.8536C1.24021 24.9473 1.36739 25 1.5 25H34.5C34.6326 25 34.7598 24.9473 34.8536 24.8536C34.9473 24.7598 35 24.6326 35 24.5V23.5C35 23.3674 34.9473 23.2402 34.8536 23.1464C34.7598 23.0527 34.6326 23 34.5 23H32V15.23C31.5814 15.0632 31.1947 14.8254 30.857 14.527C30.5977 14.7556 30.3096 14.9493 30 15.103V23H6V15.103C5.69038 14.9493 5.40225 14.7556 5.143 14.527C4.807 14.822 4.423 15.062 4 15.23ZM30 13.273C30.085 13.188 30.165 13.097 30.24 13H30V13.273ZM31.474 13C31.6252 13.1959 31.8021 13.3705 32 13.519V13H31.474ZM4 13.519C4.19888 13.3716 4.37597 13.1969 4.526 13H4V13.519ZM5.76 13H6V13.273C5.9141 13.1874 5.83393 13.0962 5.76 13ZM2.5 27C2.36739 27 2.24021 27.0527 2.14645 27.1464C2.05268 27.2402 2 27.3674 2 27.5V35C2 35.2652 2.10536 35.5196 2.29289 35.7071C2.48043 35.8946 2.73478 36 3 36H33C33.2652 36 33.5196 35.8946 33.7071 35.7071C33.8946 35.5196 34 35.2652 34 35V27.5C34 27.3674 33.9473 27.2402 33.8536 27.1464C33.7598 27.0527 33.6326 27 33.5 27H2.5Z" fill="#D9D9D9"/>
<path d="M8 20.5C8 20.3674 8.05268 20.2402 8.14645 20.1464C8.24021 20.0527 8.36739 20 8.5 20H11.5C11.6326 20 11.7598 20.0527 11.8536 20.1464C11.9473 20.2402 12 20.3674 12 20.5V22.5C12 22.6326 11.9473 22.7598 11.8536 22.8536C11.7598 22.9473 11.6326 23 11.5 23H8.5C8.36739 23 8.24021 22.9473 8.14645 22.8536C8.05268 22.7598 8 22.6326 8 22.5V20.5Z" fill="#D9D9D9"/>
<path d="M10 21.5C10 21.3674 10.0527 21.2402 10.1464 21.1464C10.2402 21.0527 10.3674 21 10.5 21H13.5C13.6326 21 13.7598 21.0527 13.8536 21.1464C13.9473 21.2402 14 21.3674 14 21.5V22.5C14 22.6326 13.9473 22.7598 13.8536 22.8536C13.7598 22.9473 13.6326 23 13.5 23H10.5C10.3674 23 10.2402 22.9473 10.1464 22.8536C10.0527 22.7598 10 22.6326 10 22.5V21.5ZM18 21.5C18 21.8978 17.842 22.2794 17.5607 22.5607C17.2794 22.842 16.8978 23 16.5 23C16.1022 23 15.7206 22.842 15.4393 22.5607C15.158 22.2794 15 21.8978 15 21.5C15 21.1022 15.158 20.7206 15.4393 20.4393C15.7206 20.158 16.1022 20 16.5 20C16.8978 20 17.2794 20.158 17.5607 20.4393C17.842 20.7206 18 21.1022 18 21.5Z" fill="#D9D9D9"/>
</svg>
