<svg width="175" height="175" viewBox="0 0 175 175" fill="none" xmlns="http://www.w3.org/2000/svg">
<path d="M87.5 175C75.5417 175 64.2396 172.702 53.5938 168.105C42.9479 163.508 33.6496 157.237 25.6988 149.292C17.7538 141.347 11.4829 132.052 6.88626 121.406C2.28959 110.76 -0.00582224 99.4583 1.109e-05 87.5C1.109e-05 75.3958 2.29834 64.0558 6.89501 53.48C11.4917 42.9042 17.7625 33.6467 25.7075 25.7075C33.6525 17.7567 42.945 11.4858 53.585 6.895C64.225 2.30417 75.53 0.00583333 87.5 0C99.6042 0 110.944 2.29833 121.52 6.895C132.096 11.4917 141.353 17.7625 149.293 25.7075C157.243 33.6525 163.514 42.9129 168.105 53.4887C172.696 64.0646 174.994 75.4017 175 87.5C175 99.4583 172.702 110.76 168.105 121.406C163.508 132.052 157.238 141.35 149.293 149.301C141.348 157.246 132.087 163.517 121.511 168.114C110.935 172.71 99.5983 175.006 87.5 175ZM87.5 157.062C91.2917 151.812 94.5729 146.344 97.3437 140.656C100.115 134.969 102.375 128.917 104.125 122.5H70.875C72.625 128.917 74.8854 134.969 77.6562 140.656C80.4271 146.344 83.7083 151.812 87.5 157.062ZM64.75 153.562C62.125 148.75 59.8267 143.754 57.855 138.574C55.8833 133.394 54.2442 128.036 52.9375 122.5H27.125C31.3542 129.792 36.6421 136.135 42.9888 141.531C49.3354 146.927 56.5892 150.937 64.75 153.562ZM110.25 153.562C118.417 150.937 125.673 146.927 132.02 141.531C138.367 136.135 143.652 129.792 147.875 122.5H122.062C120.75 128.042 119.111 133.402 117.145 138.582C115.179 143.762 112.881 148.756 110.25 153.562ZM19.6875 105H49.4375C49 102.083 48.6704 99.2017 48.4488 96.355C48.2271 93.5083 48.1192 90.5567 48.125 87.5C48.125 84.4375 48.2358 81.4858 48.4575 78.645C48.6792 75.8042 49.0058 72.9225 49.4375 70H19.6875C18.9583 72.9167 18.41 75.7983 18.0425 78.645C17.675 81.4917 17.4942 84.4433 17.5 87.5C17.5 90.5625 17.6838 93.5142 18.0513 96.355C18.4188 99.1958 18.9642 102.077 19.6875 105ZM66.9375 105H108.062C108.5 102.083 108.83 99.2017 109.051 96.355C109.273 93.5083 109.381 90.5567 109.375 87.5C109.375 84.4375 109.264 81.4858 109.042 78.645C108.821 75.8042 108.494 72.9225 108.062 70H66.9375C66.5 72.9167 66.1704 75.7983 65.9488 78.645C65.7271 81.4917 65.6192 84.4433 65.625 87.5C65.625 90.5625 65.7358 93.5142 65.9575 96.355C66.1792 99.1958 66.5058 102.077 66.9375 105ZM125.562 105H155.312C156.042 102.083 156.59 99.2017 156.957 96.355C157.325 93.5083 157.506 90.5567 157.5 87.5C157.5 84.4375 157.316 81.4858 156.949 78.645C156.581 75.8042 156.036 72.9225 155.312 70H125.562C126 72.9167 126.33 75.7983 126.551 78.645C126.773 81.4917 126.881 84.4433 126.875 87.5C126.875 90.5625 126.764 93.5142 126.542 96.355C126.321 99.1958 125.994 102.077 125.562 105ZM122.062 52.5H147.875C143.646 45.2083 138.361 38.8646 132.02 33.4687C125.679 28.0729 118.422 24.0625 110.25 21.4375C112.875 26.25 115.173 31.2462 117.145 36.4262C119.117 41.6062 120.756 46.9642 122.062 52.5ZM70.875 52.5H104.125C102.375 46.0833 100.115 40.0312 97.3437 34.3437C94.5729 28.6562 91.2917 23.1875 87.5 17.9375C83.7083 23.1875 80.4271 28.6562 77.6562 34.3437C74.8854 40.0312 72.625 46.0833 70.875 52.5ZM27.125 52.5H52.9375C54.25 46.9583 55.8921 41.5975 57.8638 36.4175C59.8354 31.2375 62.1308 26.2442 64.75 21.4375C56.5833 24.0625 49.3267 28.0729 42.98 33.4687C36.6333 38.8646 31.3483 45.2083 27.125 52.5Z" fill="#D9D9D9"/>
</svg>
