<svg width="889" height="889" viewBox="0 0 889 889" fill="none" xmlns="http://www.w3.org/2000/svg">
<path d="M229.909 44.8718C267.724 16.2327 313.889 0.786063 361.325 0.899979C374.633 0.899979 385.224 7.83123 391.379 12.5999C398.255 18.034 404.687 24.9653 410.454 31.8965C414.543 36.8629 416.778 43.0966 416.775 49.5296V250.425H356.612C350.072 231.926 337.203 216.336 320.279 206.408C303.355 196.48 283.467 192.855 264.129 196.173C244.791 199.491 227.248 209.538 214.602 224.539C201.955 239.54 195.019 258.529 195.019 278.15C195.019 297.771 201.955 316.76 214.602 331.761C227.248 346.762 244.791 356.809 264.129 360.127C283.467 363.445 303.355 359.82 320.279 349.892C337.203 339.964 350.072 324.374 356.612 305.875H416.775V827.937C416.778 832.042 415.869 836.096 414.114 839.807C412.36 843.518 409.803 846.793 406.628 849.396C381.01 870.356 346.742 888.1 305.875 888.1C240.112 888.1 191.149 854.941 159.487 815.294C136.74 787.046 121.159 753.716 114.074 718.146C92.5304 712.402 72.5557 701.884 55.6295 687.371C25.0211 661.143 0.900391 618.613 0.900391 555.4C0.900391 524.514 2.95203 496.623 7.55438 472.225H181.113C216.379 472.225 245.435 498.564 249.871 532.61C231.431 539.283 215.942 552.258 206.139 569.242C196.335 586.226 192.849 606.128 196.294 625.434C199.739 644.739 209.895 662.207 224.968 674.751C240.041 687.296 259.062 694.112 278.672 693.995C298.282 693.877 317.22 686.835 332.143 674.111C347.065 661.387 357.011 643.799 360.225 624.454C363.44 605.109 359.715 585.25 349.71 568.384C339.704 551.518 324.061 538.73 305.543 532.277C303.206 500.876 289.081 471.52 266.003 450.098C242.926 428.676 212.601 416.772 181.113 416.775H25.3538C33.8377 400.251 45.2049 386.278 60.0101 376.352C63.7551 373.873 67.6851 371.685 71.7655 369.809C56.0177 323.674 60.121 269.666 75.3143 227.247C85.018 199.965 100.433 174.181 121.615 156.992C135.588 145.624 152.223 138.139 170.411 136.697C178.396 98.8247 200.798 67.4954 229.909 44.8718ZM472.225 694.025H513.813C546.902 694.025 578.636 680.88 602.033 657.483C625.431 634.085 638.575 602.352 638.575 569.263V467.512C657.074 460.972 672.665 448.102 682.592 431.179C692.52 414.255 696.145 394.367 692.828 375.029C689.51 355.691 679.462 338.148 664.461 325.501C649.46 312.855 630.471 305.919 610.85 305.919C591.23 305.919 572.241 312.855 557.24 325.501C542.239 338.148 532.191 355.691 528.873 375.029C525.555 394.367 529.181 414.255 539.108 431.179C549.036 448.102 564.627 460.972 583.125 467.512V569.263C583.125 607.523 552.073 638.575 513.813 638.575H472.225V49.5296C472.223 43.0966 474.458 36.8629 478.547 31.8965C484.258 24.9653 490.746 18.034 497.622 12.5999C503.721 7.83123 514.312 0.899979 527.675 0.899979C575.112 0.786063 621.276 16.2327 659.092 44.8718C688.203 67.4954 710.66 98.8247 718.59 136.697C736.777 138.083 753.412 145.624 767.386 156.992C788.568 174.181 803.983 199.965 813.687 227.247C828.88 269.666 832.983 323.73 817.235 369.753C821.228 371.639 825.165 373.857 828.991 376.407C844.239 386.555 855.829 401.083 864.368 418.217C881.169 451.764 888.1 498.564 888.1 555.4C888.1 618.668 863.98 661.143 833.371 687.371C816.445 701.884 796.47 712.402 774.927 718.146C769.382 749.087 753.856 784.908 729.513 815.294C697.907 854.941 648.889 888.1 583.125 888.1C542.314 888.1 507.991 870.356 482.428 849.396C479.243 846.799 476.676 843.526 474.911 839.815C473.147 836.103 472.229 832.046 472.225 827.937V694.025ZM278.15 250.425C270.797 250.425 263.745 253.346 258.546 258.545C253.346 263.745 250.425 270.797 250.425 278.15C250.425 285.503 253.346 292.555 258.546 297.755C263.745 302.954 270.797 305.875 278.15 305.875C285.504 305.875 292.555 302.954 297.755 297.755C302.954 292.555 305.875 285.503 305.875 278.15C305.875 270.797 302.954 263.745 297.755 258.545C292.555 253.346 285.504 250.425 278.15 250.425ZM278.15 583.125C270.797 583.125 263.745 586.046 258.546 591.245C253.346 596.445 250.425 603.497 250.425 610.85C250.425 618.203 253.346 625.255 258.546 630.455C263.745 635.654 270.797 638.575 278.15 638.575C285.504 638.575 292.555 635.654 297.755 630.455C302.954 625.255 305.875 618.203 305.875 610.85C305.875 603.497 302.954 596.445 297.755 591.245C292.555 586.046 285.504 583.125 278.15 583.125ZM610.85 416.775C618.204 416.775 625.256 413.854 630.455 408.655C635.654 403.455 638.575 396.403 638.575 389.05C638.575 381.697 635.654 374.645 630.455 369.445C625.256 364.246 618.204 361.325 610.85 361.325C603.497 361.325 596.445 364.246 591.246 369.445C586.046 374.645 583.125 381.697 583.125 389.05C583.125 396.403 586.046 403.455 591.246 408.655C596.445 413.854 603.497 416.775 610.85 416.775Z" fill="#F8F1F1"/>
</svg>
