<svg width="38" height="38" viewBox="0 0 38 38" fill="none" xmlns="http://www.w3.org/2000/svg">
<path d="M37.5716 11.8677L37.5604 11.7706C37.5399 11.6491 37.5031 11.5318 37.4511 11.4227L31.9988 1.62107C31.9988 1.62107 31.3035 0.660034 31.1383 0.660034H7.9041L0.916633 11.0902L0.834022 11.1863L0.822835 11.2315C0.763809 11.3374 0.715331 11.4502 0.678267 11.5678L0.64987 11.661C0.56936 11.9594 0.573267 12.2782 0.661057 12.574L0.693757 12.6788C0.737643 12.8028 0.791857 12.9162 0.855535 13.0171L17.7485 36.9152L17.7829 36.97C17.8698 37.0949 17.9757 37.2055 18.1048 37.3064L18.2029 37.3746C18.2992 37.4419 18.3999 37.4957 18.5462 37.5553L18.6417 37.5908C18.807 37.6379 18.9507 37.66 19.0909 37.66C19.2329 37.66 19.3715 37.6389 19.5582 37.5851L19.6726 37.5399C19.7845 37.4957 19.8852 37.4409 20.0065 37.3573L20.0823 37.3045C20.2122 37.2016 20.3163 37.0901 20.374 37.0027L37.2885 13.0795C37.438 12.8567 37.5356 12.5958 37.5724 12.3203L37.5853 12.1963L37.5922 12.0983L37.5716 11.8677ZM28.5016 11.2315L30.9094 6.36572L33.3154 11.2315H28.5016ZM27.0577 14.1146H32.7698L23.249 27.5835L27.0577 14.1146ZM25.6447 9.77261L22.1673 4.50419H28.2512L25.6447 9.77261ZM14.506 14.1146H23.6784L19.0909 30.334L14.506 14.1146ZM15.4156 11.2315L19.0909 5.66128L22.7662 11.2315H15.4156ZM12.8272 9.33629L11.2335 4.50419H16.0154L12.8272 9.33629ZM14.9346 27.5845L5.41288 14.1146H11.1259L14.9346 27.5845ZM8.47635 6.39936L10.0709 11.2315H5.2881L8.47635 6.39936Z" fill="#E8AA42"/>
</svg>
