<svg width="96" height="96" viewBox="0 0 96 96" fill="none" xmlns="http://www.w3.org/2000/svg">
<path d="M64 76.8H83.2V70.4H64V76.8Z" fill="#F8F1F1"/>
<path fill-rule="evenodd" clip-rule="evenodd" d="M60.8 0C58.2539 0 55.8121 1.01143 54.0118 2.81177C52.2114 4.61212 51.2 7.05392 51.2 9.6V19.2H9.6C7.05392 19.2 4.61212 20.2114 2.81177 22.0118C1.01143 23.8121 0 26.2539 0 28.8V67.2C0 69.7461 1.01143 72.1879 2.81177 73.9882C4.61212 75.7886 7.05392 76.8 9.6 76.8H38.4V89.6H25.6V96H86.4C88.9461 96 91.3879 94.9886 93.1882 93.1882C94.9886 91.3879 96 88.9461 96 86.4V9.6C96 7.05392 94.9886 4.61212 93.1882 2.81177C91.3879 1.01143 88.9461 0 86.4 0H60.8ZM51.744 89.6H44.8V76.8H51.2V86.4C51.2 87.52 51.392 88.6016 51.744 89.6ZM60.8 89.6H86.4C87.2487 89.6 88.0626 89.2629 88.6627 88.6627C89.2629 88.0626 89.6 87.2487 89.6 86.4V38.4H57.6V86.4C57.6 87.2487 57.9371 88.0626 58.5373 88.6627C59.1374 89.2629 59.9513 89.6 60.8 89.6ZM57.6 32H89.6V9.6C89.6 8.75131 89.2629 7.93737 88.6627 7.33726C88.0626 6.73714 87.2487 6.4 86.4 6.4H60.8C59.9513 6.4 59.1374 6.73714 58.5373 7.33726C57.9371 7.93737 57.6 8.75131 57.6 9.6V32Z" fill="#F8F1F1"/>
</svg>
