<svg width="260" height="274" viewBox="0 0 260 274" fill="none" xmlns="http://www.w3.org/2000/svg">
<path d="M218.947 54.8H109.474C105.844 54.8 102.364 56.2434 99.7975 58.8126C97.2312 61.3819 95.7895 64.8665 95.7895 68.5V246.6H13.6842C10.0549 246.6 6.5743 245.157 4.00801 242.587C1.44172 240.018 0 236.533 0 232.9V13.7C0 10.0665 1.44172 6.58188 4.00801 4.01264C6.5743 1.44339 10.0549 0 13.6842 0H205.263C208.892 0 212.373 1.44339 214.939 4.01264C217.506 6.58188 218.947 10.0665 218.947 13.7V54.8ZM136.842 82.2H246.316C249.945 82.2 253.426 83.6434 255.992 86.2126C258.558 88.7819 260 92.2665 260 95.9V260.3C260 263.933 258.558 267.418 255.992 269.987C253.426 272.557 249.945 274 246.316 274H136.842C133.213 274 129.732 272.557 127.166 269.987C124.6 267.418 123.158 263.933 123.158 260.3V95.9C123.158 92.2665 124.6 88.7819 127.166 86.2126C129.732 83.6434 133.213 82.2 136.842 82.2Z" fill="#D9D9D9"/>
</svg>
