<svg width="36" height="36" viewBox="0 0 36 36" fill="none" xmlns="http://www.w3.org/2000/svg">
<path d="M16.5 22C16.1022 22 15.7206 21.842 15.4393 21.5607C15.158 21.2794 15 20.8978 15 20.5C15 20.1022 15.158 19.7206 15.4393 19.4393C15.7206 19.158 16.1022 19 16.5 19C16.8978 19 17.2794 19.158 17.5607 19.4393C17.842 19.7206 18 20.1022 18 20.5C18 20.8978 17.842 21.2794 17.5607 21.5607C17.2794 21.842 16.8978 22 16.5 22Z" fill="#F8F1F1"/>
<path fill-rule="evenodd" clip-rule="evenodd" d="M3.429 14C3.623 14 3.814 13.984 4 13.952V22H1.5C1.36739 22 1.24021 22.0527 1.14645 22.1464C1.05268 22.2402 1 22.3674 1 22.5V23.5C1 23.6326 1.05268 23.7598 1.14645 23.8536C1.24021 23.9473 1.36739 24 1.5 24H34.5C34.6326 24 34.7598 23.9473 34.8536 23.8536C34.9473 23.7598 35 23.6326 35 23.5V22.5C35 22.3674 34.9473 22.2402 34.8536 22.1464C34.7598 22.0527 34.6326 22 34.5 22H32V13.952C32.186 13.984 32.377 14 32.571 14C34.473 14 36 12.448 36 10.551V8.161C36.0001 7.84389 35.9449 7.52918 35.837 7.231L33.657 1.221C33.5277 0.86329 33.2912 0.554137 32.9799 0.335649C32.6685 0.11716 32.2974 -4.37694e-05 31.917 1.22618e-08H4.082C3.70185 0.000441545 3.33107 0.117982 3.02009 0.336632C2.70911 0.555281 2.47305 0.864423 2.344 1.222L0.164 7.231C0.0556848 7.52911 0.000186768 7.84382 0 8.161V10.551C0 12.448 1.527 14 3.429 14ZM2.044 7.913L4.189 2H31.81L33.955 7.913C33.985 7.993 33.999 8.076 33.999 8.161V10.551C34.0014 10.9326 33.8522 11.2995 33.5843 11.5712C33.3164 11.8429 32.9516 11.9971 32.57 12C31.79 12 31.142 11.36 31.142 10.551C31.142 10.2858 31.0366 10.0314 30.8491 9.84389C30.6616 9.65636 30.4072 9.551 30.142 9.551C29.8768 9.551 29.6224 9.65636 29.4349 9.84389C29.2474 10.0314 29.142 10.2858 29.142 10.551C29.1444 10.9326 28.9952 11.2995 28.7273 11.5712C28.4594 11.8429 28.0946 11.9971 27.713 12C26.933 12 26.285 11.36 26.285 10.552C26.285 10.2868 26.1796 10.0324 25.9921 9.84489C25.8046 9.65736 25.5502 9.552 25.285 9.552C25.0198 9.552 24.7654 9.65736 24.5779 9.84489C24.3904 10.0324 24.285 10.2868 24.285 10.552C24.285 11.36 23.637 12 22.856 12C22.075 12 21.428 11.36 21.428 10.551C21.428 10.2858 21.3226 10.0314 21.1351 9.84389C20.9476 9.65636 20.6932 9.551 20.428 9.551C20.1628 9.551 19.9084 9.65636 19.7209 9.84389C19.5334 10.0314 19.428 10.2858 19.428 10.551C19.4307 10.9325 19.2817 11.2994 19.014 11.5711C18.7462 11.8428 18.3815 11.9971 18 12C17.6186 11.9971 17.2539 11.843 16.986 11.5715C16.7181 11.3001 16.5689 10.9334 16.571 10.552C16.571 10.2868 16.4656 10.0324 16.2781 9.84489C16.0906 9.65736 15.8362 9.552 15.571 9.552C15.3058 9.552 15.0514 9.65736 14.8639 9.84489C14.6764 10.0324 14.571 10.2868 14.571 10.552C14.571 11.36 13.924 12 13.143 12C12.362 12 11.714 11.36 11.714 10.551C11.714 10.2858 11.6086 10.0314 11.4211 9.84389C11.2336 9.65636 10.9792 9.551 10.714 9.551C10.4488 9.551 10.1944 9.65636 10.0069 9.84389C9.81936 10.0314 9.714 10.2858 9.714 10.551C9.714 11.359 9.067 12 8.286 12C7.505 12 6.857 11.36 6.857 10.551C6.857 10.2858 6.75164 10.0314 6.56411 9.84389C6.37657 9.65636 6.12222 9.551 5.857 9.551C5.59178 9.551 5.33743 9.65636 5.14989 9.84389C4.96236 10.0314 4.857 10.2858 4.857 10.551C4.857 11.359 4.21 12 3.429 12C2.647 12 2 11.36 2 10.551V8.161C1.99998 8.07639 2.01488 7.99244 2.044 7.913ZM30 13.122C29.3735 13.6884 28.5586 14.0013 27.714 14C27.2623 14.0005 26.8149 13.9112 26.3981 13.7371C25.9812 13.563 25.6032 13.3077 25.286 12.986C24.9687 13.3078 24.5905 13.5632 24.1735 13.7373C23.7564 13.9114 23.3089 14.0007 22.857 14C22.4053 14.0005 21.9579 13.9112 21.5411 13.7371C21.1242 13.563 20.7462 13.3077 20.429 12.986C20.1117 13.3078 19.7335 13.5632 19.3165 13.7373C18.8994 13.9114 18.4519 14.0007 18 14C17.5481 14.0007 17.1006 13.9114 16.6835 13.7373C16.2665 13.5632 15.8883 13.3078 15.571 12.986C15.2538 13.3077 14.8758 13.563 14.4589 13.7371C14.0421 13.9112 13.5947 14.0005 13.143 14C12.192 14 11.333 13.611 10.714 12.986C10.3968 13.3077 10.0188 13.563 9.60194 13.7371C9.18508 13.9112 8.73775 14.0005 8.286 14C7.406 14 6.606 13.667 6 13.122V22H8.5C8.36739 22 8.24021 21.9473 8.14645 21.8536C8.05268 21.7598 8 21.6326 8 21.5V19.5C8 19.3674 8.05268 19.2402 8.14645 19.1464C8.24021 19.0527 8.36739 19 8.5 19H11.5C11.6326 19 11.7598 19.0527 11.8536 19.1464C11.9473 19.2402 12 19.3674 12 19.5V20H13.5C13.6326 20 13.7598 20.0527 13.8536 20.1464C13.9473 20.2402 14 20.3674 14 20.5V21.5C14 21.6326 13.9473 21.7598 13.8536 21.8536C13.7598 21.9473 13.6326 22 13.5 22H30V13.122ZM2 27C2 26.7348 2.10536 26.4804 2.29289 26.2929C2.48043 26.1054 2.73478 26 3 26H33C33.2652 26 33.5196 26.1054 33.7071 26.2929C33.8946 26.4804 34 26.7348 34 27V35C34 35.2652 33.8946 35.5196 33.7071 35.7071C33.5196 35.8946 33.2652 36 33 36H3C2.73478 36 2.48043 35.8946 2.29289 35.7071C2.10536 35.5196 2 35.2652 2 35V27ZM4 34V28H32V34H4Z" fill="#F8F1F1"/>
</svg>
