<svg width="2048" height="1921" viewBox="0 0 2048 1921" fill="none" xmlns="http://www.w3.org/2000/svg">
<path d="M1344 0.0833333C1361.33 0.0833333 1376.33 6.41667 1389 19.0833L2029 659.083C2041.67 671.75 2048 686.75 2048 704.083C2048 721.417 2041.67 736.417 2029 749.083L1786 992.083C1802.67 1008.75 1819 1024.75 1835 1040.08C1851 1055.42 1865 1071.08 1877 1087.08C1889 1103.08 1899 1121.08 1907 1141.08C1915 1161.08 1919 1183.42 1919 1208.08C1919 1234.75 1914 1260.08 1904 1284.08C1894 1308.08 1880.33 1329.08 1863 1347.08C1845.67 1365.08 1825.33 1379.42 1802 1390.08C1778.67 1400.75 1753.67 1406.42 1727 1407.08C1725.67 1434.42 1720 1459.42 1710 1482.08C1700 1504.75 1686.67 1524.75 1670 1542.08C1653.33 1559.42 1633.33 1573.08 1610 1583.08C1586.67 1593.08 1561.67 1598.42 1535 1599.08C1534.33 1625.75 1528.67 1650.75 1518 1674.08C1507.33 1697.42 1493 1717.75 1475 1735.08C1457 1752.42 1436 1766.42 1412 1777.08C1388 1787.75 1362.67 1792.75 1336 1792.08C1314.67 1792.08 1293 1788.42 1271 1781.08C1263.67 1801.75 1254 1820.42 1242 1837.08C1230 1853.75 1215.33 1868.42 1198 1881.08C1180.67 1893.75 1162.33 1903.42 1143 1910.08C1123.67 1916.75 1102.67 1920.08 1080 1920.08C1062.67 1920.08 1047.33 1918.75 1034 1916.08C1020.67 1913.42 1008.33 1908.75 997 1902.08C985.667 1895.42 974.333 1888.08 963 1880.08C951.667 1872.08 940 1862.42 928 1851.08C904.667 1872.42 882 1889.08 860 1901.08C838 1913.08 810 1919.42 776 1920.08C749.333 1920.08 724 1915.08 700 1905.08C676 1895.08 655 1881.42 637 1864.08C619 1846.75 604.667 1826.42 594 1803.08C583.333 1779.75 577.667 1754.42 577 1727.08C551 1726.42 526.333 1721.08 503 1711.08C479.667 1701.08 459.333 1687.42 442 1670.08C424.667 1652.75 411 1632.42 401 1609.08C391 1585.75 385.667 1561.08 385 1535.08C358.333 1534.42 333.667 1529.08 311 1519.08C288.333 1509.08 268.333 1495.42 251 1478.08C233.667 1460.75 220 1440.42 210 1417.08C200 1393.75 194.333 1369.08 193 1343.08C165.667 1342.42 140.333 1336.75 117 1326.08C93.6667 1315.42 73.3333 1301.08 56 1283.08C38.6667 1265.08 25 1244.42 15 1221.08C5 1197.75 0 1172.42 0 1145.08C0 1117.75 5 1092.08 15 1068.08C25 1044.08 39.6667 1022.42 59 1003.08L165 896.083L19 749.083C6.33333 736.417 0 721.417 0 704.083C0 686.75 6.33333 671.75 19 659.083L659 19.0833C671.667 6.41667 686.667 0.0833333 704 0.0833333C721.333 0.0833333 736.333 6.41667 749 19.0833L881 151.083C889.667 148.417 906.333 142.75 931 134.083C955.667 125.417 984.667 115.75 1018 105.083C1051.33 94.4167 1085.67 82.75 1121 70.0833C1156.33 57.4167 1190.33 46.0833 1223 36.0833C1255.67 26.0833 1282.67 17.4167 1304 10.0833C1325.33 2.75 1338.67 -0.583333 1344 0.0833333ZM312 960.083C292.667 960.083 276 967.083 262 981.083L149 1093.08C135 1107.08 128 1124.08 128 1144.08C128 1164.08 134.667 1180.75 148 1194.08C161.333 1207.42 178.333 1214.42 199 1215.08C219.667 1215.08 236.667 1208.42 250 1195.08L363 1083.08C377 1069.08 384 1052.08 384 1032.08C384 1012.08 377 995.083 363 981.083C349 967.083 332 960.083 312 960.083ZM504 1152.08C494.667 1152.08 485.667 1153.75 477 1157.08C468.333 1160.42 460.333 1165.75 453 1173.08L341 1286.08C327 1300.08 320 1317.08 320 1337.08C320 1356.42 327 1372.75 341 1386.08C355 1399.42 372 1406.42 392 1407.08C401.333 1407.08 410.333 1405.42 419 1402.08C427.667 1398.75 435.667 1393.75 443 1387.08L555 1274.08C569 1260.08 576 1243.42 576 1224.08C576 1204.08 569 1187.08 555 1173.08C541 1159.08 524 1152.08 504 1152.08ZM696 1344.08C676.667 1344.08 660 1351.08 646 1365.08L533 1477.08C519 1491.08 512 1508.08 512 1528.08C512 1548.08 518.667 1564.75 532 1578.08C545.333 1591.42 562.333 1598.42 583 1599.08C603.667 1599.08 620.667 1592.42 634 1579.08L747 1467.08C761 1453.08 768 1436.08 768 1416.08C768 1396.08 761 1379.08 747 1365.08C733 1351.08 716 1344.08 696 1344.08ZM704 1721.08C704 1740.42 711 1756.75 725 1770.08C739 1783.42 756 1790.42 776 1791.08C785.333 1791.08 794.333 1789.42 803 1786.08C811.667 1782.75 819.667 1777.75 827 1771.08L939 1658.08C953 1644.08 960 1627.42 960 1608.08C960 1588.08 953 1571.08 939 1557.08C925 1543.08 908 1536.08 888 1536.08C878.667 1536.08 869.667 1537.75 861 1541.08C852.333 1544.42 844.333 1549.75 837 1557.08L725 1670.08C711 1684.08 704 1701.08 704 1721.08ZM1720 1280.08C1739.33 1280.08 1756 1273.08 1770 1259.08C1784 1245.08 1791.33 1228.42 1792 1209.08C1792 1189.08 1785 1172.08 1771 1158.08L1139 525.083C1137 523.083 1133.67 521.417 1129 520.083C1124.33 518.75 1119.67 517.417 1115 516.083C1110.33 514.75 1105.33 513.75 1100 513.083C1094.67 512.417 1090.67 512.083 1088 512.083C1070.67 512.083 1054.33 515.417 1039 522.083C1023.67 528.75 1010 537.75 998 549.083C986 560.417 976.667 574.083 970 590.083C963.333 606.083 960 622.75 960 640.083C960 675.417 953.333 708.417 940 739.083C926.667 769.75 908.333 797.083 885 821.083C861.667 845.083 834.667 863.417 804 876.083C773.333 888.75 740 895.417 704 896.083C677.333 896.083 652.333 891.083 629 881.083C605.667 871.083 585.333 857.417 568 840.083C550.667 822.75 537 802.417 527 779.083C517 755.75 512 730.75 512 704.083C512 688.083 513.667 670.417 517 651.083C520.333 631.75 525.667 614.417 533 599.083L720 224.083C726 213.417 735 204.75 747 198.083L704 155.083L154 704.083L289 838.083C319 834.75 347.333 836.75 374 844.083C400.667 851.417 424 863.75 444 881.083C464 898.417 480 919.417 492 944.083C504 968.75 510.333 996.417 511 1027.08C537.667 1028.42 562.667 1033.75 586 1043.08C609.333 1052.42 629.333 1065.75 646 1083.08C662.667 1100.42 676.333 1120.42 687 1143.08C697.667 1165.75 703 1191.08 703 1219.08C729.667 1220.42 754.667 1225.75 778 1235.08C801.333 1244.42 821.333 1257.75 838 1275.08C854.667 1292.42 868.333 1312.42 879 1335.08C889.667 1357.75 895 1383.08 895 1411.08C922.333 1412.42 947.667 1418.08 971 1428.08C994.333 1438.08 1014.67 1451.75 1032 1469.08C1049.33 1486.42 1063 1507.08 1073 1531.08C1083 1555.08 1088 1580.75 1088 1608.08C1088 1638.08 1082 1666.08 1070 1692.08C1058 1718.08 1040.67 1740.75 1018 1760.08C1028 1769.42 1037 1777.08 1045 1783.08C1053 1789.08 1064.67 1792.08 1080 1792.08C1099.33 1792.08 1116 1785.08 1130 1771.08C1144 1757.08 1151.33 1740.42 1152 1721.08C1152 1701.08 1145 1684.08 1131 1670.08L1221 1579.08L1286 1643.08C1301.33 1657.08 1318 1664.08 1336 1664.08C1355.33 1664.08 1372 1657.08 1386 1643.08C1400 1629.08 1407.33 1612.42 1408 1593.08C1408 1573.08 1401 1556.08 1387 1542.08L1274 1429.08L1365 1339.08L1477 1451.08C1491 1465.08 1508 1472.08 1528 1472.08C1548 1472.08 1565 1465.08 1579 1451.08C1593 1437.08 1600 1420.08 1600 1400.08C1600 1380.08 1593 1363.08 1579 1349.08L1466 1237.08L1557 1146.08L1670 1259.08C1684 1273.08 1700.67 1280.08 1720 1280.08ZM1893 704.083L1327 137.083L823 305.083L649 653.083C645.667 659.083 643.333 667.417 642 678.083C640.667 688.75 640 697.417 640 704.083C640 721.417 646.333 736.417 659 749.083C671.667 761.75 686.667 768.083 704 768.083C722 768.083 738.667 764.75 754 758.083C769.333 751.417 782.667 742.417 794 731.083C805.333 719.75 814.667 706.083 822 690.083C829.333 674.083 832.667 657.417 832 640.083C832 604.75 838.667 571.75 852 541.083C865.333 510.417 883.667 483.083 907 459.083C930.333 435.083 957.333 416.75 988 404.083C1018.67 391.417 1052 384.75 1088 384.083C1098.67 384.083 1110 385.083 1122 387.083C1134 389.083 1146.67 391.75 1160 395.083C1173.33 398.417 1185 403.083 1195 409.083C1205 415.083 1214.67 422.083 1224 430.083L1696 902.083L1893 704.083Z" fill="#D9D9D9"/>
</svg>
