<svg width="38" height="37" viewBox="0 0 38 37" fill="none" xmlns="http://www.w3.org/2000/svg">
<path d="M36.7649 33.8339C36.7605 33.8232 36.7547 33.8129 36.7477 33.8031L26.8647 17.9223L31.3996 12.5508L31.4189 12.5281C31.6995 12.1751 31.8478 11.7712 31.8478 11.3596C31.8478 10.9481 31.6995 10.5442 31.4189 10.1912C31.4039 10.1718 31.3867 10.1523 31.3695 10.1328L26.6839 5.08425V0.973684C26.6839 0.715447 26.548 0.467787 26.3059 0.285186C26.0638 0.102584 25.7355 0 25.3932 0C25.0508 0 24.7225 0.102584 24.4805 0.285186C24.2384 0.467787 24.1024 0.715447 24.1024 0.973684V5.05018L22.8762 6.20561C22.3521 6.69957 21.6876 7.09831 20.9316 7.37233C20.1757 7.64634 19.3477 7.78861 18.509 7.78861C17.6704 7.78861 16.8424 7.64634 16.0865 7.37233C15.3305 7.09831 14.6659 6.69957 14.1419 6.20561L12.9157 5.05018V0.973684C12.9157 0.715447 12.7797 0.467787 12.5376 0.285186C12.2956 0.102584 11.9672 3.86907e-08 11.6249 3.86907e-08C11.2826 3.86907e-08 10.9543 0.102584 10.7122 0.285186C10.4701 0.467787 10.3341 0.715447 10.3341 0.973684V5.08425L5.64863 10.1328C5.63142 10.1523 5.6142 10.1718 5.59915 10.1912C5.31854 10.5442 5.17032 10.9481 5.17032 11.3596C5.17032 11.7712 5.31854 12.1751 5.59915 12.5281L5.61851 12.5508L10.1534 17.9223L0.270399 33.8031C0.263372 33.8129 0.257608 33.8232 0.253188 33.8339C0.0571416 34.1793 -0.0222669 34.556 0.0220735 34.9303C0.0664138 35.3046 0.233119 35.6647 0.507259 35.9784C0.781398 36.2922 1.15441 36.5497 1.59289 36.728C2.03137 36.9063 2.52163 36.9997 3.01975 37H33.9983C34.4966 37 34.9872 36.9067 35.4259 36.7286C35.8647 36.5504 36.238 36.2929 36.5124 35.9791C36.7868 35.6653 36.9537 35.3051 36.9981 34.9307C37.0426 34.5563 36.9632 34.1795 36.767 33.8339H36.7649ZM7.80852 11.5219C7.77334 11.4754 7.75394 11.4231 7.75206 11.3696C7.75019 11.3161 7.76589 11.263 7.79777 11.2152L11.6938 7.01539L12.124 7.42272C12.8899 8.1447 13.8612 8.72752 14.9661 9.12803C16.0709 9.52854 17.2811 9.73649 18.5069 9.73649C19.7327 9.73649 20.9428 9.52854 22.0477 9.12803C23.1526 8.72752 24.1239 8.1447 24.8898 7.42272L25.32 7.01539L29.216 11.212C29.2495 11.2591 29.2671 11.3118 29.2671 11.3653C29.2671 11.4188 29.2495 11.4715 29.216 11.5187L24.6983 16.8739H12.3327L7.80852 11.5219ZM34.3555 34.9066C34.3173 34.9522 34.2642 34.9896 34.2012 35.0152C34.1383 35.0408 34.0677 35.0537 33.9962 35.0526H3.01975C2.94981 35.0527 2.88088 35.04 2.81895 35.0155C2.75702 34.991 2.70394 34.9554 2.66432 34.9119C2.62469 34.8685 2.59972 34.8184 2.59155 34.766C2.58339 34.7136 2.59228 34.6605 2.61746 34.6112L12.4446 18.8246H24.5735L34.3985 34.6112C34.4245 34.6593 34.4342 34.7114 34.4266 34.763C34.4191 34.8146 34.3947 34.8639 34.3555 34.9066Z" fill="#E8AA42"/>
</svg>
