<svg width="117" height="111" viewBox="0 0 117 111" fill="none" xmlns="http://www.w3.org/2000/svg">
<path d="M35.333 23.7499V12.1666C35.333 8.98118 36.4682 6.2533 38.7385 3.98297C41.0089 1.71264 43.7348 0.579401 46.9164 0.583262H70.083C73.2684 0.583262 75.9963 1.71843 78.2666 3.98876C80.537 6.2591 81.6702 8.98504 81.6664 12.1666V23.7499H104.833C108.018 23.7499 110.746 24.8851 113.017 27.1554C115.287 29.4258 116.42 32.1517 116.416 35.3333V64.2916H75.8747V52.7083H41.1247V64.2916H0.583018V35.3333C0.583018 32.1478 1.71818 29.42 3.98852 27.1496C6.25885 24.8793 8.9848 23.7461 12.1664 23.7499H35.333ZM46.9164 23.7499H70.083V12.1666H46.9164V23.7499ZM52.708 75.8749V64.2916H64.2914V75.8749H52.708ZM0.583018 75.8749H41.1247V87.4583H75.8747V75.8749H116.416V99.0416C116.416 102.227 115.281 104.955 113.011 107.225C110.741 109.496 108.015 110.629 104.833 110.625H12.1664C8.98093 110.625 6.25306 109.49 3.98273 107.219C1.71239 104.949 0.579157 102.223 0.583018 99.0416V75.8749Z" fill="#F8F1F1"/>
</svg>
