<svg width="39" height="39" viewBox="0 0 39 39" fill="none" xmlns="http://www.w3.org/2000/svg">
<path d="M19.5 1V38M19.5 10.5H38M19.5 28.5H1M36 1H3C2.46957 1 1.96086 1.21071 1.58579 1.58579C1.21071 1.96086 1 2.46957 1 3V36C1 36.5304 1.21071 37.0391 1.58579 37.4142C1.96086 37.7893 2.46957 38 3 38H36C36.5304 38 37.0391 37.7893 37.4142 37.4142C37.7893 37.0391 38 36.5304 38 36V3C38 2.46957 37.7893 1.96086 37.4142 1.58579C37.0391 1.21071 36.5304 1 36 1Z" stroke="#E8AA42" stroke-linecap="round" stroke-linejoin="round"/>
</svg>
